<svg width="22" height="20" viewBox="0 0 22 20" fill="none" xmlns="http://www.w3.org/2000/svg">
<path d="M7.35714 13.4177H4.79592C3.17287 13.4177 1.85714 12.3107 1.85714 10.6877C1.85714 9.06465 3.17287 7.74892 4.79592 7.74892C4.90629 7.74892 5.01524 7.75501 5.12245 7.76686V7.74892H5.16287C5.13619 7.53498 5.12245 7.31702 5.12245 7.09586C5.12245 4.21045 7.46153 1.87137 10.3469 1.87137C12.3009 1.87137 14.0042 2.94398 14.9004 4.53251C15.1194 4.5003 15.3435 4.48361 15.5714 4.48361C18.0962 4.48361 20.1429 6.53031 20.1429 9.05504C20.1429 11.358 18.4399 13.0545 16.2245 13.3714H13.8571M10.6735 8.07545V18.1286M10.6735 18.1286L8.35714 15.8714M10.6735 18.1286L12.9286 15.8714" stroke="#FE6B10" stroke-width="1.8" stroke-linecap="round" stroke-linejoin="round"/>
</svg>
